<svg width="519" height="79" viewBox="0 0 519 79" fill="none" xmlns="http://www.w3.org/2000/svg">
<g id="animation">
<g id="user" clip-path="url(#clip0_4208_3199)">
<path id="Body" fill-rule="evenodd" clip-rule="evenodd" d="M15.3337 50.9294C15.5086 51.0865 15.6901 51.2367 15.8786 51.3785C15.9342 51.4203 16.0032 51.4744 16.0855 51.5388L16.0858 51.5391L16.0863 51.5395C17.1357 52.3618 20.3208 54.8573 24.8334 54.8573C29.346 54.8573 32.531 52.3617 33.5804 51.5395L33.5811 51.539C33.6634 51.4745 33.7325 51.4204 33.7881 51.3785C33.9766 51.2367 34.1582 51.0865 34.333 50.9294C34.3878 50.9486 34.4435 50.9657 34.4998 50.9809C37.5595 51.804 43.0202 54.1672 46.1257 58.9947C49.326 63.9695 49.9168 70.8704 50.0125 74.3339C50.033 75.0787 49.6178 75.7664 48.9429 76.082C43.8597 78.459 38.2959 79.0673 25.1882 78.9941C12.072 79.0673 6.20413 78.4587 1.07944 76.0803C0.4036 75.7666 -0.0113324 75.0788 -0.00493189 74.3337C0.024822 70.8702 0.340745 63.9695 3.541 58.9947C6.64649 54.1672 12.1072 51.804 15.1669 50.9809C15.2233 50.9657 15.2789 50.9486 15.3337 50.9294Z" fill="#60A5FA"/>
<path id="Head" d="M18.7899 47.7808C15.6849 45.4193 13.3561 35.4813 12.5798 30.8075C12.0623 26.8717 13.8218 19 25 19C36.1782 19 37.9377 26.8717 37.4202 30.8075C36.6439 35.4813 34.3151 45.4193 31.2101 47.7808C30.2398 48.5187 28.105 50.3636 25 50.3636C21.895 50.3636 19.7602 48.5187 18.7899 47.7808Z" fill="#60A5FA"/>
</g>
<g id="GraduationCap 1" clip-path="url(#clip1_4208_3199)">
<path id="Vector" d="M43.2478 32.1733C43.226 31.352 43.0931 30.2148 42.5923 28.8556C43.4323 28.0598 43.2763 25.9739 42.3416 25.4593V20.4643L46.4 17.1344C46.4 17.1344 28.645 3.15009 24.9189 0.0151784L24.9 0L24.8811 0.0151784L3.40002 17.1342L12.5805 24.6406C12.5619 25.6729 12.5776 26.4674 12.5805 27.5C12.5805 28.1106 12.5805 27.2334 12.5805 28.5C12.5805 24 37.5 23.8556 37.5 28.8556C37.5 27.8556 37.5 28.1795 37.5 27.5C37.4998 26.4524 37.5007 25.5475 37.5 24.5L41.2471 21.3628V25.4716C40.248 26.0469 40.1998 28.333 41.1719 28.9979C40.8508 32.577 40.1227 36.8773 39.3641 40C41.5582 39.6526 43.3007 39.3585 43.281 39.2126C43.1489 38.9886 43.2837 33.5349 43.2478 32.1733ZM34.1234 17.7233C27.9126 14.7632 17.4172 14.6551 12.5805 20.6094C12.531 19.9048 12.5142 19.3462 12.9076 18.822C17.8674 12.7622 28.162 12.9418 34.0111 16.0519C35.2297 16.6658 36.3761 17.6598 37.2774 19.0235C37.5392 19.4228 37.4861 19.9199 37.397 20.4313C37.4037 20.3931 37.397 20.4313 37.3769 20.4056C36.429 19.1998 35.3196 18.2934 34.1234 17.7233Z" fill="#1D4ED8"/>
</g>
<g id="fire" clip-path="url(#clip2_4208_3199)">
<g id="back">
<path id="back_2" fill-rule="evenodd" clip-rule="evenodd" d="M298.5 15.5L283.611 34.9043H313.39L298.5 15.5ZM280.597 45.117C280.597 41.338 281.707 37.8253 283.612 34.9043H313.388C315.293 37.8253 316.403 41.338 316.403 45.117C316.403 55.2697 308.388 63.5 298.5 63.5C288.612 63.5 280.597 55.2697 280.597 45.117Z" fill="#EB3017"/>
</g>
<g id="middle">
<path id="middle_2" fill-rule="evenodd" clip-rule="evenodd" d="M298.5 21.9L285.761 38.1556H285.762C284.133 40.6026 283.183 43.5453 283.183 46.7111C283.183 55.2163 290.04 62.1111 298.5 62.1111C306.959 62.1111 313.817 55.2163 313.817 46.7111C313.817 43.5453 312.867 40.6026 311.238 38.1556H311.239L298.5 21.9Z" fill="#FF9D00"/>
</g>
<g id="front">
<path id="front_2" fill-rule="evenodd" clip-rule="evenodd" d="M298.5 31.8L289.943 42.7194H307.057L298.5 31.8ZM288.211 48.4664C288.211 46.3399 288.849 44.3632 289.944 42.7194H307.056C308.151 44.3632 308.789 46.3399 308.789 48.4664C308.789 54.1796 304.182 58.8111 298.5 58.8111C292.818 58.8111 288.211 54.1796 288.211 48.4664Z" fill="#FFCC00"/>
</g>
</g>
<g id="cloud" clip-path="url(#clip3_4208_3199)">
<path id="cloud_2" d="M206.25 42.533C204.417 42.533 202.583 42.833 200.75 43.733C201.361 42.533 201.667 41.033 201.667 39.533C201.667 32.9331 196.167 27.533 189.444 27.533C186.694 27.533 184.556 28.4331 182.417 29.6331C179.361 18.233 168.667 9.53302 155.833 9.53302C140.556 9.53302 128.333 21.533 128.333 36.533C128.333 37.733 128.333 38.933 128.639 39.8331C127.417 39.533 126.5 39.533 125.278 39.533C116.722 39.533 110 46.133 110 54.5331C110 62.933 116.722 69.533 125.278 69.533H206.25C213.889 69.533 220 63.5329 220 56.033C220 48.533 213.889 42.533 206.25 42.533Z" fill="white"/>
</g>
<g id="logo">
<g id="FireCert">
<path id="Vector_2" d="M470.824 30.3182V35.7727H455.057V30.3182H470.824ZM458.636 24.0455H465.898V48.4545C465.898 49.125 466 49.6477 466.204 50.0227C466.409 50.3864 466.693 50.642 467.057 50.7898C467.432 50.9375 467.864 51.0114 468.352 51.0114C468.693 51.0114 469.034 50.983 469.375 50.9261C469.716 50.858 469.977 50.8068 470.159 50.7727L471.301 56.1761C470.937 56.2898 470.426 56.4205 469.767 56.5682C469.108 56.7273 468.307 56.8239 467.364 56.858C465.614 56.9261 464.079 56.6932 462.761 56.1591C461.454 55.625 460.437 54.7955 459.71 53.6705C458.983 52.5455 458.625 51.125 458.636 49.4091V24.0455Z" fill="white"/>
<path id="Vector_3" d="M435.945 56.5V30.3182H442.984V34.8864H443.257C443.734 33.2614 444.535 32.0341 445.66 31.2045C446.785 30.3636 448.081 29.9432 449.547 29.9432C449.91 29.9432 450.303 29.9659 450.723 30.0114C451.143 30.0568 451.513 30.1193 451.831 30.1989V36.642C451.49 36.5398 451.018 36.4489 450.416 36.3693C449.814 36.2898 449.263 36.25 448.763 36.25C447.695 36.25 446.74 36.483 445.899 36.9489C445.07 37.4034 444.41 38.0398 443.922 38.858C443.445 39.6761 443.206 40.6193 443.206 41.6875V56.5H435.945Z" fill="white"/>
<path id="Vector_4" d="M419.189 57.0114C416.496 57.0114 414.177 56.4659 412.234 55.375C410.302 54.2727 408.814 52.7159 407.768 50.7045C406.723 48.6818 406.2 46.2898 406.2 43.5284C406.2 40.8352 406.723 38.4716 407.768 36.4375C408.814 34.4034 410.285 32.8182 412.183 31.6818C414.092 30.5454 416.331 29.9773 418.899 29.9773C420.626 29.9773 422.234 30.2557 423.723 30.8125C425.223 31.3579 426.53 32.1818 427.643 33.2841C428.768 34.3864 429.643 35.7727 430.268 37.4432C430.893 39.1023 431.206 41.0454 431.206 43.2727V45.267H409.098V40.767H424.371C424.371 39.7216 424.143 38.7954 423.689 37.9886C423.234 37.1818 422.604 36.5511 421.797 36.0966C421.001 35.6307 420.075 35.3977 419.018 35.3977C417.916 35.3977 416.939 35.6534 416.087 36.1648C415.246 36.6648 414.587 37.3409 414.109 38.1932C413.632 39.0341 413.388 39.9716 413.376 41.0057V45.2841C413.376 46.5795 413.615 47.6989 414.092 48.642C414.581 49.5852 415.268 50.3125 416.155 50.8239C417.041 51.3352 418.092 51.5909 419.308 51.5909C420.115 51.5909 420.854 51.4773 421.524 51.25C422.195 51.0227 422.768 50.6818 423.246 50.2273C423.723 49.7727 424.087 49.2159 424.337 48.5568L431.052 49C430.712 50.6136 430.013 52.0227 428.956 53.2273C427.91 54.4204 426.558 55.3523 424.899 56.0227C423.251 56.6818 421.348 57.0114 419.189 57.0114Z" fill="white"/>
<path id="Vector_5" d="M402.101 33.8125H394.635C394.499 32.8466 394.22 31.9886 393.8 31.2386C393.379 30.4773 392.839 29.8295 392.18 29.2955C391.521 28.7614 390.76 28.3523 389.896 28.0682C389.044 27.7841 388.118 27.642 387.118 27.642C385.311 27.642 383.737 28.0909 382.396 28.9886C381.055 29.875 380.016 31.1705 379.277 32.875C378.538 34.5682 378.169 36.625 378.169 39.0455C378.169 41.5341 378.538 43.625 379.277 45.3182C380.027 47.0114 381.072 48.2898 382.413 49.1534C383.754 50.017 385.305 50.4489 387.067 50.4489C388.055 50.4489 388.97 50.3182 389.811 50.0568C390.663 49.7955 391.419 49.4148 392.078 48.9148C392.737 48.4034 393.283 47.7841 393.714 47.0568C394.158 46.3295 394.464 45.5 394.635 44.5682L402.101 44.6023C401.908 46.2045 401.425 47.75 400.652 49.2386C399.891 50.7159 398.862 52.0398 397.567 53.2102C396.283 54.3693 394.749 55.2898 392.964 55.9716C391.192 56.642 389.186 56.9773 386.947 56.9773C383.834 56.9773 381.05 56.2727 378.595 54.8636C376.152 53.4545 374.22 51.4148 372.8 48.7443C371.391 46.0739 370.686 42.8409 370.686 39.0455C370.686 35.2386 371.402 32 372.834 29.3295C374.266 26.6591 376.209 24.625 378.663 23.2273C381.118 21.8182 383.879 21.1136 386.947 21.1136C388.97 21.1136 390.845 21.3977 392.572 21.9659C394.311 22.5341 395.851 23.3636 397.192 24.4545C398.533 25.5341 399.624 26.858 400.464 28.4261C401.317 29.9943 401.862 31.7898 402.101 33.8125Z" fill="white"/>
<path id="Vector_6" d="M354.408 57.0114C351.714 57.0114 349.396 56.4659 347.453 55.375C345.521 54.2727 344.033 52.7159 342.987 50.7045C341.942 48.6818 341.419 46.2898 341.419 43.5284C341.419 40.8352 341.942 38.4716 342.987 36.4375C344.033 34.4034 345.504 32.8182 347.402 31.6818C349.311 30.5454 351.55 29.9773 354.118 29.9773C355.845 29.9773 357.453 30.2557 358.942 30.8125C360.442 31.3579 361.748 32.1818 362.862 33.2841C363.987 34.3864 364.862 35.7727 365.487 37.4432C366.112 39.1023 366.425 41.0454 366.425 43.2727V45.267H344.317V40.767H359.589C359.589 39.7216 359.362 38.7954 358.908 37.9886C358.453 37.1818 357.822 36.5511 357.016 36.0966C356.22 35.6307 355.294 35.3977 354.237 35.3977C353.135 35.3977 352.158 35.6534 351.305 36.1648C350.464 36.6648 349.805 37.3409 349.328 38.1932C348.851 39.0341 348.606 39.9716 348.595 41.0057V45.2841C348.595 46.5795 348.834 47.6989 349.311 48.642C349.8 49.5852 350.487 50.3125 351.373 50.8239C352.26 51.3352 353.311 51.5909 354.527 51.5909C355.334 51.5909 356.072 51.4773 356.743 51.25C357.413 51.0227 357.987 50.6818 358.464 50.2273C358.942 49.7727 359.305 49.2159 359.555 48.5568L366.271 49C365.93 50.6136 365.231 52.0227 364.175 53.2273C363.129 54.4204 361.777 55.3523 360.118 56.0227C358.47 56.6818 356.567 57.0114 354.408 57.0114Z" fill="white"/>
<path id="Vector_7" d="M324.054 56.5V30.3182H331.094V34.8864H331.366C331.844 33.2614 332.645 32.0341 333.77 31.2045C334.895 30.3636 336.19 29.9432 337.656 29.9432C338.02 29.9432 338.412 29.9659 338.832 30.0114C339.253 30.0568 339.622 30.1193 339.94 30.1989V36.642C339.599 36.5398 339.128 36.4489 338.526 36.3693C337.923 36.2898 337.372 36.25 336.872 36.25C335.804 36.25 334.849 36.483 334.008 36.9489C333.179 37.4034 332.52 38.0398 332.031 38.858C331.554 39.6761 331.315 40.6193 331.315 41.6875V56.5H324.054Z" fill="white"/>
<path id="Vector_8" d="M310.976 56.5V30.3182H318.237V56.5H310.976ZM314.624 26.9432C313.544 26.9432 312.618 26.5852 311.845 25.8693C311.084 25.142 310.703 24.2727 310.703 23.2614C310.703 22.2614 311.084 21.4034 311.845 20.6875C312.618 19.9602 313.544 19.5966 314.624 19.5966C315.703 19.5966 316.624 19.9602 317.385 20.6875C318.158 21.4034 318.544 22.2614 318.544 23.2614C318.544 24.2727 318.158 25.142 317.385 25.8693C316.624 26.5852 315.703 26.9432 314.624 26.9432Z" fill="white"/>
<path id="Vector_9" d="M283.034 56.5V21.5909H306.148V27.6761H290.415V35.9943H304.614V42.0795H290.415V56.5H283.034Z" fill="white"/>
</g>
</g>
<g id="fadeout-dot">
<path id="fadeout-dot_2" d="M301.5 39.5C301.5 39.7055 301.479 39.9061 301.44 40.1C301.398 40.3087 301.334 40.5095 301.25 40.7C300.787 41.7595 299.73 42.5 298.5 42.5C297.519 42.5 296.647 42.0288 296.1 41.3003C295.838 40.9514 295.65 40.5435 295.56 40.1C295.521 39.9061 295.5 39.7055 295.5 39.5C295.5 39.2945 295.521 39.0939 295.56 38.9C295.65 38.4566 295.838 38.0489 296.1 37.7C296.647 36.9714 297.519 36.5 298.5 36.5C299.481 36.5 300.353 36.9713 300.9 37.7C301.039 37.8846 301.157 38.0858 301.25 38.3C301.334 38.4905 301.398 38.6913 301.44 38.9C301.479 39.0939 301.5 39.2945 301.5 39.5Z" fill="#FF9D00"/>
</g>
<g id="cloud-dot">
<path id="cloud-dot_2" d="M28 39.5C28 39.7055 27.9793 39.9061 27.94 40.1C27.8976 40.3087 27.8336 40.5095 27.7504 40.7C27.2874 41.7595 26.2302 42.5 25 42.5C24.0186 42.5 23.1473 42.0288 22.6 41.3003C22.3379 40.9514 22.15 40.5435 22.06 40.1C22.0207 39.9061 22 39.7055 22 39.5C22 39.2945 22.0207 39.0939 22.06 38.9C22.15 38.4566 22.3379 38.0489 22.6 37.7C23.1473 36.9714 24.0186 36.5 25 36.5C25.9815 36.5 26.8529 36.9713 27.4002 37.7C27.5389 37.8846 27.6568 38.0858 27.7504 38.3C27.8336 38.4905 27.8976 38.6913 27.94 38.9C27.9793 39.0939 28 39.2945 28 39.5Z" fill="#60A5FA"/>
</g>
<g id="fire-dot">
<path id="fire-dot_2" d="M168 39.5C168 39.7055 167.979 39.9061 167.94 40.1C167.898 40.3087 167.834 40.5095 167.75 40.7C167.287 41.7595 166.23 42.5 165 42.5C164.019 42.5 163.147 42.0288 162.6 41.3003C162.338 40.9514 162.15 40.5435 162.06 40.1C162.021 39.9061 162 39.7055 162 39.5C162 39.2945 162.021 39.0939 162.06 38.9C162.15 38.4566 162.338 38.0489 162.6 37.7C163.147 36.9714 164.019 36.5 165 36.5C165.981 36.5 166.853 36.9713 167.4 37.7C167.539 37.8846 167.657 38.0858 167.75 38.3C167.834 38.4905 167.898 38.6913 167.94 38.9C167.979 39.0939 168 39.2945 168 39.5Z" fill="white"/>
</g>
<g id="fadeout-dot2">
<path id="fadeout-dot2_2" d="M168 39.5C168 39.7055 167.979 39.9061 167.94 40.1C167.898 40.3087 167.834 40.5095 167.75 40.7C167.287 41.7595 166.23 42.5 165 42.5C164.019 42.5 163.147 42.0288 162.6 41.3003C162.338 40.9514 162.15 40.5435 162.06 40.1C162.021 39.9061 162 39.7055 162 39.5C162 39.2945 162.021 39.0939 162.06 38.9C162.15 38.4566 162.338 38.0489 162.6 37.7C163.147 36.9714 164.019 36.5 165 36.5C165.981 36.5 166.853 36.9713 167.4 37.7C167.539 37.8846 167.657 38.0858 167.75 38.3C167.834 38.4905 167.898 38.6913 167.94 38.9C167.979 39.0939 168 39.2945 168 39.5Z" fill="white"/>
</g>
</g>
<defs>
<clipPath id="clip0_4208_3199">
<rect width="50" height="60" fill="white" transform="translate(0 19)"/>
</clipPath>
<clipPath id="clip1_4208_3199">
<rect width="43" height="40" fill="white" transform="translate(3.40002)"/>
</clipPath>
<clipPath id="clip2_4208_3199">
<rect width="37" height="48" fill="white" transform="translate(280 15.5)"/>
</clipPath>
<clipPath id="clip3_4208_3199">
<rect width="110" height="60" fill="white" transform="translate(110 9.5)"/>
</clipPath>
</defs>
</svg>
