<svg width="80" height="44" viewBox="0 0 80 44" fill="none" xmlns="http://www.w3.org/2000/svg">
<g id="Cloud" clip-path="url(#clip0_4179_3661)">
<path id="Cloud_2" d="M70 24.2242C68.6667 24.2242 67.3333 24.4442 66 25.1042C66.4444 24.2242 66.6667 23.1242 66.6667 22.0242C66.6667 17.1842 62.6667 13.2242 57.7778 13.2242C55.7778 13.2242 54.2222 13.8842 52.6667 14.7642C50.4444 6.40421 42.6667 0.024215 33.3333 0.024215C22.2222 0.024215 13.3333 8.8242 13.3333 19.8242C13.3333 20.7042 13.3333 21.5842 13.5556 22.2442C12.6667 22.0242 12 22.0242 11.1111 22.0242C4.88889 22.0242 0 26.8642 0 33.0242C0 39.1842 4.88889 44.0242 11.1111 44.0242H70C75.5556 44.0242 80 39.6241 80 34.1242C80 28.6242 75.5556 24.2242 70 24.2242Z" fill="#83BADD"/>
</g>
<defs>
<clipPath id="clip0_4179_3661">
<rect width="80" height="44" fill="white"/>
</clipPath>
</defs>
</svg>
