<svg width="31" height="40" viewBox="0 0 31 40" fill="none" xmlns="http://www.w3.org/2000/svg">
<g id="Fire" clip-path="url(#clip0_4179_3663)">
<g id="Back">
<path id="Back_2" fill-rule="evenodd" clip-rule="evenodd" d="M15.5 0L3.025 16.1702H27.975L15.5 0ZM0.5 24.6809C0.5 21.5317 1.43045 18.6044 3.02591 16.1702H27.9741C29.5695 18.6044 30.5 21.5317 30.5 24.6809C30.5 33.1414 23.7843 40 15.5 40C7.21573 40 0.5 33.1414 0.5 24.6809Z" fill="#EB3017"/>
</g>
<g id="Middle">
<path id="Middle_2" fill-rule="evenodd" clip-rule="evenodd" d="M15.5 5.33334L4.82694 18.8796H4.82773C3.46272 20.9188 2.66667 23.3711 2.66667 26.0093C2.66667 33.0969 8.41234 38.8426 15.5 38.8426C22.5877 38.8426 28.3333 33.0969 28.3333 26.0093C28.3333 23.3711 27.5373 20.9188 26.1723 18.8796H26.1731L15.5 5.33334Z" fill="#FF9D00"/>
</g>
<g id="Front">
<path id="Front_2" fill-rule="evenodd" clip-rule="evenodd" d="M15.5 13.5833L8.33056 22.6828H22.6694L15.5 13.5833ZM6.87943 27.472C6.87943 25.6999 7.41417 24.0526 8.33109 22.6828H22.6689C23.5858 24.0526 24.1206 25.6999 24.1206 27.472C24.1206 32.233 20.261 36.0926 15.5 36.0926C10.739 36.0926 6.87943 32.233 6.87943 27.472Z" fill="#FFCC00"/>
</g>
</g>
<defs>
<clipPath id="clip0_4179_3663">
<rect width="31" height="40" fill="white"/>
</clipPath>
</defs>
</svg>
