<svg width="10" height="10" viewBox="0 0 10 10" fill="none" xmlns="http://www.w3.org/2000/svg">
<g id="green-dot">
<path id="green-dot_2" d="M10 5C10 5.34247 9.96557 5.67689 9.89998 6C9.82938 6.3478 9.72268 6.6825 9.58396 7C8.8124 8.7659 7.05032 10 5 10C3.3644 10 1.91223 9.21466 1 8.00049C0.563094 7.41897 0.250044 6.73908 0.100018 6C0.0344303 5.67689 0 5.34247 0 5C0 4.65753 0.0344303 4.32311 0.100018 4C0.250017 3.26105 0.563217 2.58145 1 2C1.91221 0.785653 3.36426 0 5 0C6.63582 0 8.08816 0.785553 9.00037 2C9.23151 2.30773 9.42797 2.643 9.58396 3C9.72268 3.3175 9.82938 3.6522 9.89998 4C9.96557 4.32311 10 4.65753 10 5Z" fill="#0FBA81"/>
</g>
</svg>
