<svg width="36" height="44" viewBox="0 0 36 44" fill="none" xmlns="http://www.w3.org/2000/svg">
<g id="User" clip-path="url(#clip0_4178_4270)">
<path id="Body" fill-rule="evenodd" clip-rule="evenodd" d="M11.0054 23.3828C11.142 23.5096 11.2843 23.6306 11.4326 23.7443C11.4727 23.775 11.5226 23.8148 11.5819 23.8621L11.582 23.8622L11.5822 23.8623C12.3377 24.4653 14.631 26.2953 17.88 26.2953C21.1291 26.2953 23.4223 24.4653 24.1779 23.8623L24.1784 23.8619C24.2377 23.8146 24.2874 23.7749 24.3274 23.7443C24.4758 23.6306 24.6181 23.5096 24.7546 23.3828C24.8827 23.4481 25.0182 23.5021 25.1582 23.5443C27.4049 24.2214 31.0786 25.9539 33.2105 29.3294C35.4234 32.833 35.9034 37.6393 35.999 40.2645C36.0259 41.0036 35.6168 41.6915 34.9435 41.9977C31.3601 43.6268 27.3198 44.0479 18.1355 43.9957C8.94324 44.0479 4.69564 43.6265 1.07314 41.9954C0.398704 41.6918 -0.0109096 41.0038 0.000103448 40.2642C0.039197 37.639 0.336735 32.8329 2.54954 29.3294C4.68149 25.9539 8.35514 24.2214 10.6019 23.5443C10.7419 23.5021 10.8774 23.4481 11.0054 23.3828Z" fill="#83BADD"/>
<path id="Head" d="M13.5287 21.1059C11.2931 19.3741 9.61638 12.0863 9.05747 8.65882C8.68487 5.77255 9.95173 0 18 0C26.0483 0 27.3151 5.77255 26.9425 8.65882C26.3836 12.0863 24.7069 19.3741 22.4713 21.1059C21.7726 21.6471 20.2356 23 18 23C15.7644 23 14.2274 21.6471 13.5287 21.1059Z" fill="#83BADD"/>
</g>
<defs>
<clipPath id="clip0_4178_4270">
<rect width="36" height="44" fill="white"/>
</clipPath>
</defs>
</svg>
